<svg width="500" height="500" viewBox="0 0 500 500" fill="none" xmlns="http://www.w3.org/2000/svg">
<path d="M250 0C388.071 0 500 111.929 500 250C500 290.236 490.493 328.251 473.605 361.924C472.693 323.291 441.09 292.254 402.238 292.254C362.812 292.254 330.85 324.215 330.85 363.642C330.85 403.068 362.812 435.03 402.238 435.03C408.64 435.03 414.846 434.185 420.749 432.604C420.516 432.822 420.283 433.039 420.05 433.256C355.968 459.355 256.531 437.661 248.264 320.716C248.048 317.661 249.672 314.719 252.36 313.252L307.945 282.914L480.415 185.68C484.287 183.497 485.652 178.562 483.249 174.823C456.354 132.979 411.95 105.866 362.826 92.3857C311.055 78.1794 255.621 84.6289 208.721 110.314C161.821 136 127.295 178.818 112.74 229.349C98.1853 279.88 104.187 333.985 130.503 379.762C191.454 480.851 293.67 493.645 369.625 469.573C334.093 488.972 293.335 500 250 500C111.929 500 0 388.071 0 250C0 111.929 111.929 0 250 0Z" fill="#FF512C"/>
</svg>
